# xmcd
#
# Track frame offsets: 
#        150
#        21810
#        40571
#        57415
#        77764
#        105750
#        131825
#        159723
#        175960
#        190936
#        212896
#        228984
#        251223
#        265531
#        282107
#        299831
#        318395
#
# Disc length: 4445 seconds
#
# Revision: 0
# Processed by: cddbd v1.5.2PL0 Copyright (c) Steve Scherf et al.
# Submitted via: ExactAudioCopyFreeDBPlugin 1.0
#
DISCID=f4115b11
DTITLE=Rock de Galpão - 10 Anos na  Estrada
DYEAR=2018
DGENRE=Pop
TTITLE0=Semeadura
TTITLE1=Pra ti guria
TTITLE2=Herdeiro da pampa pobre
TTITLE3=Percorrendo o Rio Grande
TTITLE4=Sabe moço
TTITLE5=Prenda minha
TTITLE6=Couro cru
TTITLE7=Xote da amizade
TTITLE8=Km 11
TTITLE9=Merceditas
TTITLE10=Luna llena y su carita
TTITLE11=Cancion con todos
TTITLE12=Solo le pido a dios
TTITLE13=Rancho de amor a ilha
TTITLE14=Mocinhas da cdade
TTITLE15=Tocando em frente
TTITLE16=Luna tucumana
EXTD=
EXTT0=
EXTT1=
EXTT2=
EXTT3=
EXTT4=
EXTT5=
EXTT6=
EXTT7=
EXTT8=
EXTT9=
EXTT10=
EXTT11=
EXTT12=
EXTT13=
EXTT14=
EXTT15=
EXTT16=
PLAYORDER=
